<?xml version="1.0" encoding="utf-8"?>
<!-- Generator: Adobe Illustrator 25.1.0, SVG Export Plug-In . SVG Version: 6.00 Build 0)  -->
<svg version="1.1" id="Outlined" xmlns="http://www.w3.org/2000/svg" xmlns:xlink="http://www.w3.org/1999/xlink" x="0px" y="0px"
	 viewBox="0 0 21.7 22.8" style="enable-background:new 0 0 21.7 22.8;" xml:space="preserve">
<style type="text/css">
	.st0{fill:#FFFFFF;}
</style>
<path class="st0" d="M10.9,10.8c2.8,0,5-2.2,5-5s-2.2-5-5-5s-5,2.2-5,5S8.1,10.8,10.9,10.8z M10.9,2.8c1.7,0,3,1.3,3,3s-1.3,3-3,3
	s-3-1.3-3-3S9.2,2.8,10.9,2.8z"/>
<path class="st0" d="M15.9,11.8h-10c-2.8,0-5,2.2-5,5v5h2v-5c0-1.7,1.3-3,3-3h10c1.7,0,3,1.3,3,3v5h2v-5
	C20.9,14,18.6,11.8,15.9,11.8z"/>
</svg>
