<?xml version="1.0"?>
<svg xmlns="http://www.w3.org/2000/svg" xmlns:xlink="http://www.w3.org/1999/xlink" version="1.1" id="Capa_1" x="0px" y="0px" viewBox="0 0 472.615 472.615" style="enable-background:new 0 0 472.615 472.615;" xml:space="preserve" width="512px" height="512px"><g><g>
	<g>
		<path d="M374.154,0v472.615h98.462V0H374.154z M452.923,452.923h-59.077V19.692h59.077V452.923z" data-original="#000000" class="active-path" data-old_color="#000000" fill="#FFFFFF"/>
	</g>
</g><g>
	<g>
		<path d="M253.046,68.923L256,472.615h85.661V68.923H253.046z M320.984,452.923h-46.277l-2.954-364.308h49.231V452.923z" data-original="#000000" class="active-path" data-old_color="#000000" fill="#FFFFFF"/>
	</g>
</g><g>
	<g>
		<path d="M121.108,178.215v293.415h98.461V178.215H121.108z M199.877,451.938H140.8V197.908h59.077V451.938z" data-original="#000000" class="active-path" data-old_color="#000000" fill="#FFFFFF"/>
	</g>
</g><g>
	<g>
		<path d="M0,262.892v209.723l88.615-1.969V262.892H0z M68.923,451.938l-49.231,0.985V282.585v0h49.231V451.938z" data-original="#000000" class="active-path" data-old_color="#000000" fill="#FFFFFF"/>
	</g>
</g><g>
	<g>
		<rect x="9.846" y="452.923" width="452.923" height="19.692" data-original="#000000" class="active-path" data-old_color="#000000" fill="#FFFFFF"/>
	</g>
</g></g> </svg>
