<?xml version="1.0" encoding="utf-8"?>
<!-- Generator: Adobe Illustrator 24.3.0, SVG Export Plug-In . SVG Version: 6.00 Build 0)  -->
<svg version="1.1" id="Layer_1" xmlns="http://www.w3.org/2000/svg" xmlns:xlink="http://www.w3.org/1999/xlink" x="0px" y="0px"
	 viewBox="0 0 16 16" style="enable-background:new 0 0 16 16;" xml:space="preserve">
<style type="text/css">
	.st0{fill:#66C4CF;}
</style>
<g>
	<g>
		<path class="st0" d="M9.3,8.2l4-4c0.1-0.1,0.2-0.3,0.2-0.4c0-0.2-0.1-0.3-0.2-0.4L12.9,3c-0.1-0.1-0.3-0.2-0.4-0.2
			c-0.2,0-0.3,0.1-0.4,0.2l-4,4l-4-4C4,2.9,3.8,2.9,3.7,2.9C3.5,2.9,3.4,2.9,3.2,3L2.9,3.4C2.7,3.6,2.7,4,2.9,4.2l4,4l-4,4
			c-0.1,0.1-0.2,0.3-0.2,0.4s0.1,0.3,0.2,0.4l0.4,0.4c0.1,0.1,0.3,0.2,0.4,0.2c0.2,0,0.3-0.1,0.4-0.2l4-4l4,4
			c0.1,0.1,0.3,0.2,0.4,0.2h0c0.2,0,0.3-0.1,0.4-0.2l0.4-0.4c0.1-0.1,0.2-0.3,0.2-0.4s-0.1-0.3-0.2-0.4L9.3,8.2z"/>
	</g>
</g>
</svg>
