<?xml version="1.0" encoding="utf-8"?>
<!-- Generator: Adobe Illustrator 25.1.0, SVG Export Plug-In . SVG Version: 6.00 Build 0)  -->
<svg version="1.1" id="Layer_1" xmlns="http://www.w3.org/2000/svg" xmlns:xlink="http://www.w3.org/1999/xlink" x="0px" y="0px"
	 viewBox="0 0 50 50" style="enable-background:new 0 0 50 50;" xml:space="preserve">
<style type="text/css">
	.st0{fill:#4E75D4;}
</style>
<g id="Layer_1_1_">
	<polygon class="st0" points="26,49 26,27.4 30.3,31.7 31.7,30.3 25,23.6 18.3,30.3 19.7,31.7 24,27.4 24,49 	"/>
	<path class="st0" d="M41,17.2c0-0.1,0-0.1,0-0.2c0-3.1-2.3-5.6-5.4-6C34.3,5.2,29.1,1,23,1c-7.2,0-13,5.8-13,13
		c0,0.4,0,0.8,0.1,1.2C4.9,16.1,1,20.7,1,26c0,6.1,4.9,11,11,11h8v-2h-8c-5,0-9-4-9-9c0-4.7,3.6-8.6,8.3-9l1.1-0.1l-0.2-1.1
		C12.1,15.2,12,14.6,12,14c0-6.1,4.9-11,11-11c5.4,0,10,3.9,10.8,9.2l0.1,0.9l0.9,0c0.1,0,0.1,0,0.1,0c2.2,0,4,1.8,4,4
		c0,0.3,0,0.6-0.1,0.8l-0.2,1.1l1.1,0.1c4.1,0.4,7.2,3.8,7.2,8c0,4.4-3.6,8-8,8h-9v2h9c5.5,0,10-4.5,10-10
		C49,22.2,45.6,18.1,41,17.2z"/>
</g>
</svg>
