<?xml version="1.0" encoding="utf-8"?>
<!-- Generator: Adobe Illustrator 25.1.0, SVG Export Plug-In . SVG Version: 6.00 Build 0)  -->
<svg version="1.1" id="Layer_1" xmlns="http://www.w3.org/2000/svg" xmlns:xlink="http://www.w3.org/1999/xlink" x="0px" y="0px"
	 viewBox="0 0 26.6 24.4" style="enable-background:new 0 0 26.6 24.4;" xml:space="preserve">
<style type="text/css">
	.st0{fill:#FFFFFF;}
	.st1{fill:none;}
</style>
<g id="Layer_2_1_">
	<path class="st0" d="M10.3,24.2c-0.2,0-0.4-0.1-0.5-0.1c-0.3-0.2-0.5-0.6-0.5-0.9v-9.6L1.6,5C0.8,4.1,0.3,2.9,0.3,1.7V1.2
		c0-0.6,0.4-1,1-1h24c0.6,0,1,0.4,1,1v0.5c0,1.2-0.5,2.4-1.3,3.3l-7.7,8.6V19c0,1.1-0.6,2.2-1.7,2.7l-4.9,2.4
		C10.6,24.2,10.5,24.2,10.3,24.2z M2.4,2.2c0.1,0.5,0.3,1.1,0.7,1.5l8,8.9c0.2,0.2,0.2,0.4,0.2,0.7v8.4l3.5-1.7
		c0.3-0.2,0.6-0.5,0.5-0.9v-5.9c0-0.2,0.1-0.5,0.3-0.7l8-8.9c0.3-0.3,0.6-0.9,0.7-1.4H2.4z"/>
</g>
<g id="frame">
	<rect x="-2.7" y="-3.8" class="st1" width="32" height="32"/>
</g>
</svg>
