<?xml version="1.0" encoding="utf-8"?>
<!-- Generator: Adobe Illustrator 25.1.0, SVG Export Plug-In . SVG Version: 6.00 Build 0)  -->
<svg version="1.1" id="Capa_1" xmlns="http://www.w3.org/2000/svg" xmlns:xlink="http://www.w3.org/1999/xlink" x="0px" y="0px"
	 viewBox="0 0 20 20" style="enable-background:new 0 0 20 20;" xml:space="preserve">
<style type="text/css">
	.st-white{fill:#FFFFFF;}
</style>
<g>
	<g>
		<path class="st-white" d="M15.6,3.6h-10C5.3,3.6,5,3.3,5,3V2.7c0-0.3-0.3-0.6-0.6-0.6h-3c-0.6,0-1.1,0.5-1.1,1.1v9.6l1.5-7.1
			c0.1-0.3,0.3-0.4,0.5-0.4h14.4V4.7C16.7,4.1,16.2,3.6,15.6,3.6z"/>
	</g>
</g>
<g>
	<g>
		<path class="st-white" d="M18.5,6.5H2.8l0,0L0.6,17.2c-0.1,0.4,0.2,0.7,0.6,0.7h16.4c0.6,0,1.1-0.4,1.1-1l1-9.1
			C19.7,7,19.2,6.5,18.5,6.5z"/>
	</g>
</g>
</svg>
