<?xml version="1.0" encoding="utf-8"?>
<!-- Generator: Adobe Illustrator 25.1.0, SVG Export Plug-In . SVG Version: 6.00 Build 0)  -->
<svg version="1.1" id="Livello_1" xmlns="http://www.w3.org/2000/svg" xmlns:xlink="http://www.w3.org/1999/xlink" x="0px" y="0px"
	 viewBox="0 0 128 128" style="enable-background:new 0 0 128 128;" xml:space="preserve">
<style type="text/css">
	.upload{fill:#FFFFFF;}
</style>
<path class="upload" d="M37.1,32.9c0.8,0,1.6-0.3,2.1-0.9L61,10.2V91c0,1.7,1.3,3,3,3s3-1.3,3-3V10.2L88.8,32c1.3,1,3.2,0.8,4.2-0.5
	c0.8-1.1,0.8-2.6,0-3.7L66.1,0.9c-0.1-0.1-0.3-0.3-0.5-0.4l-0.2-0.1c-0.1-0.1-0.2-0.1-0.3-0.2c-0.1,0-0.2-0.1-0.3-0.1l-0.2-0.1
	c-0.4-0.1-0.8-0.1-1.2,0l-0.2,0.1c-0.1,0-0.2,0.1-0.3,0.1c-0.1,0-0.2,0.1-0.3,0.2l-0.2,0.1c-0.2,0.1-0.3,0.2-0.5,0.4L35,27.8
	c-1.2,1.2-1.2,3.1,0,4.2C35.6,32.6,36.3,32.9,37.1,32.9L37.1,32.9z"/>
<path class="upload" d="M125,88c-1.7,0-3,1.3-3,3v22c0,5-4,9-9,9H15c-5,0-9-4-9-9V91c0-1.7-1.3-3-3-3s-3,1.3-3,3v22c0,8.3,6.7,15,15,15
	l0,0h98c8.3,0,15-6.7,15-15l0,0V91C128,89.3,126.7,88,125,88z"/>
</svg>
