<?xml version="1.0"?>
<svg xmlns="http://www.w3.org/2000/svg" xmlns:xlink="http://www.w3.org/1999/xlink" version="1.1" id="Layer_1" x="0px" y="0px" viewBox="0 0 330 330" style="enable-background:new 0 0 330 330;" xml:space="preserve" width="512px" height="512px"><g><path id="XMLID_844_" d="M265,130h-15V84.999C250,38.13,211.869,0,165,0c-46.869,0-84.999,38.13-84.999,84.999V130H65  c-8.284,0-15,6.716-15,15v170c0,8.284,6.716,15,15,15h200c8.284,0,15-6.716,15-15V145C280,136.716,273.284,130,265,130z   M110.001,84.999C110.001,54.673,134.673,30,165,30c30.327,0,55,24.673,55,54.999V130H110.001V84.999z M250,300H80V160h15.001H235  h15V300z" data-original="#000000" class="active-path" data-old_color="#000000" fill="#FFFFFF"/></g> </svg>
