<?xml version="1.0" encoding="utf-8"?>
<!-- Generator: Adobe Illustrator 25.1.0, SVG Export Plug-In . SVG Version: 6.00 Build 0)  -->
<svg version="1.1" id="Capa_1" xmlns="http://www.w3.org/2000/svg" xmlns:xlink="http://www.w3.org/1999/xlink" x="0px" y="0px"
	 viewBox="0 0 512 512" style="enable-background:new 0 0 512 512;" xml:space="preserve">
<style type="text/css">
	.st0{fill:#FFFFFF;}
</style>
<g>
	<g>
		<path class="st0" d="M336.7,74.8c-10.3-3.9-21.9,1.2-25.8,11.5s1.2,21.9,11.5,25.8C393.1,139.2,442,207.4,442,286
			c0,102.6-83.4,186-186,186S70,388.6,70,286c0-78.7,48.9-146.8,119.6-173.8c10.3-3.9,15.5-15.5,11.5-25.8
			c-3.9-10.3-15.5-15.5-25.8-11.5C89.2,107.8,30,190.7,30,286c0,124.9,101.1,226,226,226s226-101.1,226-226
			C482,190.6,422.8,107.8,336.7,74.8z"/>
	</g>
</g>
<g>
	<g>
		<path class="st0" d="M256,0c-11,0-20,9-20,20v195.9c0,11,9,20,20,20s20-9,20-20V20C276,9,267,0,256,0z"/>
	</g>
</g>
</svg>
