<?xml version="1.0" encoding="utf-8"?>
<!-- Generator: Adobe Illustrator 25.1.0, SVG Export Plug-In . SVG Version: 6.00 Build 0)  -->
<svg version="1.1" id="Layer_1" xmlns="http://www.w3.org/2000/svg" xmlns:xlink="http://www.w3.org/1999/xlink" x="0px" y="0px"
	 viewBox="0 0 28.6 18.5" style="enable-background:new 0 0 28.6 18.5;" xml:space="preserve">
<style type="text/css">
	.st0{fill:none;stroke:#FFFFFF;stroke-width:2;stroke-linecap:round;stroke-linejoin:round;stroke-miterlimit:10;}
	.st1{fill:#acacac;}
</style>
<g>
	<polyline class="st0" points="647.3,131.3 673.3,131.3 673.3,149.3 659.3,149.3 	"/>
	<polyline class="st0" points="651.3,149.3 647.3,149.3 647.3,135.3 	"/>
	<polyline class="st0" points="659.3,149.3 651.3,155.3 651.3,149.3 	"/>
</g>
<g>
	<g>
		<path class="st1" d="M14.3,18.3c-4.3,0-8.3-1.8-11.4-5.1c-0.4-0.4-0.4-1,0-1.4c0.4-0.4,1-0.4,1.4,0c2.8,2.9,6.3,4.5,10,4.5
			c4.8,0,9.1-2.6,11.8-7c-2.7-4.4-7.1-7-11.8-7c-4.9,0-9.5,2.8-12.1,7.5c-0.3,0.5-0.9,0.6-1.4,0.4C0.3,9.9,0.2,9.3,0.4,8.8
			c3-5.3,8.2-8.5,13.9-8.5s10.9,3.2,13.9,8.5c0.2,0.3,0.2,0.7,0,1C25.2,15.1,20,18.3,14.3,18.3z"/>
	</g>
	<g>
		<path class="st1" d="M14.3,14.3c-2.8,0-5-2.2-5-5s2.2-5,5-5s5,2.2,5,5S17.1,14.3,14.3,14.3z M14.3,6.3c-1.7,0-3,1.3-3,3s1.3,3,3,3
			s3-1.3,3-3S16,6.3,14.3,6.3z"/>
	</g>
</g>
</svg>
