<?xml version="1.0" encoding="utf-8"?>
<!-- Generator: Adobe Illustrator 25.1.0, SVG Export Plug-In . SVG Version: 6.00 Build 0)  -->
<svg version="1.1" id="Layer_1" xmlns="http://www.w3.org/2000/svg" xmlns:xlink="http://www.w3.org/1999/xlink" x="0px" y="0px"
	 viewBox="0 0 28.2 18.4" style="enable-background:new 0 0 28.2 18.4;" xml:space="preserve">
<style type="text/css">
	.st0{fill:none;stroke:#FFFFFF;stroke-width:2;stroke-linecap:round;stroke-linejoin:round;stroke-miterlimit:10;}
	.st1{fill:#FFFFFF;}
</style>
<g>
	<polyline class="st0" points="647.1,131.2 673.1,131.2 673.1,149.2 659.1,149.2 	"/>
	<polyline class="st0" points="651.1,149.2 647.1,149.2 647.1,135.2 	"/>
	<polyline class="st0" points="659.1,149.2 651.1,155.2 651.1,149.2 	"/>
</g>
<g>
	<g>
		<path class="st1" d="M14.2,18.2c-4.3,0-8.3-1.8-11.4-5.1c-0.4-0.4-0.4-1,0-1.4c0.4-0.4,1-0.4,1.4,0c2.8,2.9,6.3,4.5,10,4.5
			c4.8,0,9.1-2.6,11.8-7c-2.7-4.4-7.1-7-11.8-7C9.3,2.2,4.7,5,2.1,9.7c-0.3,0.5-0.9,0.6-1.4,0.4C0.2,9.8,0.1,9.2,0.3,8.7
			c3-5.3,8.2-8.5,13.9-8.5s10.9,3.2,13.9,8.5c0.2,0.3,0.2,0.7,0,1C25.1,15,19.9,18.2,14.2,18.2z"/>
	</g>
	<g>
		<path class="st1" d="M14.2,14.2c-2.8,0-5-2.2-5-5s2.2-5,5-5s5,2.2,5,5S17,14.2,14.2,14.2z M14.2,6.2c-1.7,0-3,1.3-3,3s1.3,3,3,3
			s3-1.3,3-3S15.9,6.2,14.2,6.2z"/>
	</g>
</g>
</svg>
