<?xml version="1.0" encoding="utf-8"?>
<!-- Generator: Adobe Illustrator 25.1.0, SVG Export Plug-In . SVG Version: 6.00 Build 0)  -->
<svg version="1.1" id="Design_Convert" xmlns="http://www.w3.org/2000/svg" xmlns:xlink="http://www.w3.org/1999/xlink" x="0px"
	 y="0px" viewBox="0 0 64 64" style="enable-background:new 0 0 64 64;" xml:space="preserve">
<style type="text/css">
	.st0{fill-rule:evenodd;clip-rule:evenodd;fill:#FFFFFF;}
</style>
<g id="Page-1">
	<g id="Core" transform="translate(-380.000000, -422.000000)">
		<g id="star-outline" transform="translate(380.000000, 422.500000)">
			<path id="Shape" class="st0" d="M60.9,22.7l-21.2-1.8L31.5,1.4l-8.2,19.4L2.1,22.7l16.1,13.9l-4.8,20.7l18.2-11l18.2,11
				l-4.8-20.7L60.9,22.7L60.9,22.7z M31.5,40.8l-11.1,6.7l3-12.6l-9.8-8.4l12.9-1.1l5-11.9l5,11.9l12.9,1.1l-9.8,8.4l3,12.6
				L31.5,40.8L31.5,40.8z"/>
		</g>
	</g>
</g>
<g id="Page-1_1_">
	<g id="Core_1_" transform="translate(-380.000000, -422.000000)">
		<g id="star-outline_1_" transform="translate(380.000000, 422.500000)">
			<path id="Shape_1_" class="st0" d="M63.3,9.1l-5.4-0.5l-2.1-4.9l-2.1,5l-5.4,0.5l4.1,3.6l-1.1,5.2l4.7-2.8l4.7,2.8l-1.2-5.3
				L63.3,9.1L63.3,9.1z M55.8,13.8l-2.8,1.7l0.7-3.3l-2.5-2.1l3.5-0.3l1.3-3.1l1.3,3.1l3.3,0.3l-2.5,2.1l0.7,3.3L55.8,13.8
				L55.8,13.8z"/>
		</g>
	</g>
</g>
<g id="Page-1_4_">
	<g id="Core_4_" transform="translate(-380.000000, -422.000000)">
		<g id="star-outline_4_" transform="translate(380.000000, 422.500000)">
			<path id="Shape_4_" class="st0" d="M15.5,7l-5.4-0.5L7.9,1.7l-2.1,5L0.4,7l4.1,3.6l-1.2,5.3L7.9,13l4.7,2.8l-1.2-5.3L15.5,7
				L15.5,7z M7.9,11.7l-2.8,1.7l0.7-3.3L3.4,8.1l3.3-0.3l1.3-3.1l1.3,3.1l3.3,0.3L10,10.2l0.7,3.3L7.9,11.7L7.9,11.7z"/>
		</g>
	</g>
</g>
<g id="Page-1_2_">
	<g id="Core_2_" transform="translate(-380.000000, -422.000000)">
		<g id="star-outline_2_" transform="translate(380.000000, 422.500000)">
			<path id="Shape_2_" class="st0" d="M58.7,50.5l-3.5-0.3l-1.3-3.3l-1.3,3.3L49,50.5l2.6,2.3l-0.8,3.4l3-1.8l3,1.8L56,52.8
				L58.7,50.5L58.7,50.5z M53.9,53.4l-1.8,1.1l0.5-2L51,51.1l2.1-0.2l0.8-1.9l0.8,1.9l2.1,0.2l-1.6,1.4l0.5,2L53.9,53.4L53.9,53.4z"
				/>
		</g>
	</g>
</g>
<g id="Page-1_3_">
	<g id="Core_3_" transform="translate(-380.000000, -422.000000)">
		<g id="star-outline_3_" transform="translate(380.000000, 422.500000)">
			<path id="Shape_3_" class="st0" d="M10.6,54.5L7,54.2l-1.4-3.3l-1.4,3.3l-3.6,0.3l2.7,2.3l-0.8,3.5l3.1-1.8l3.1,1.8l-0.8-3.5
				L10.6,54.5L10.6,54.5z M5.6,57.5l-1.8,1.1l0.5-2.1l-1.6-1.4l2.1-0.2l0.8-2l0.8,2l2.1,0.2l-1.6,1.4l0.5,2.1L5.6,57.5L5.6,57.5z"/>
		</g>
	</g>
</g>
</svg>
