<?xml version="1.0" encoding="utf-8"?>
<!-- Generator: Adobe Illustrator 25.1.0, SVG Export Plug-In . SVG Version: 6.00 Build 0)  -->
<svg version="1.1" id="Editable-line" xmlns="http://www.w3.org/2000/svg" xmlns:xlink="http://www.w3.org/1999/xlink" x="0px"
	 y="0px" viewBox="0 0 32 32" style="enable-background:new 0 0 32 32;" xml:space="preserve">
<style type="text/css">
	.st0{fill:none;stroke:#FFA13B;stroke-width:2;stroke-linecap:round;stroke-linejoin:round;stroke-miterlimit:10;}
</style>
<circle id="XMLID_224_" class="st0" cx="16" cy="16" r="4"/>
<path id="XMLID_242_" class="st0" d="M27.8,10.4l-1-1.7c-0.6-1-1.8-1.3-2.7-0.7l-0.5,0.3c-2,1.2-4.5-0.3-4.5-2.6V5c0-1.1-0.9-2-2-2
	h-2c-1.1,0-2,0.9-2,2v0.6c0,2.3-2.5,3.8-4.5,2.6L8,7.9C7,7.3,5.8,7.7,5.2,8.6l-1,1.7c-0.6,1-0.2,2.2,0.7,2.7l0.5,0.3
	c2,1.2,2,4,0,5.2L5,18.9c-1,0.6-1.3,1.8-0.7,2.7l1,1.7c0.6,1,1.8,1.3,2.7,0.7l0.5-0.3c2-1.2,4.5,0.3,4.5,2.6V27c0,1.1,0.9,2,2,2h2
	c1.1,0,2-0.9,2-2v-0.6c0-2.3,2.5-3.8,4.5-2.6l0.5,0.3c1,0.6,2.2,0.2,2.7-0.7l1-1.7c0.6-1,0.2-2.2-0.7-2.7l-0.5-0.3c-2-1.2-2-4,0-5.2
	l0.5-0.3C28,12.5,28.3,11.3,27.8,10.4z"/>
</svg>
