<?xml version="1.0" encoding="UTF-8"?>
<svg width="53px" height="45px" viewBox="0 0 53 45" version="1.1" xmlns="http://www.w3.org/2000/svg" xmlns:xlink="http://www.w3.org/1999/xlink">
    <!-- Generator: Sketch 52.3 (67297) - http://www.bohemiancoding.com/sketch -->
    <title>Group 3</title>
    <desc>Created with Sketch.</desc>
    <g id="Page-2" stroke="none" stroke-width="1" fill="none" fill-rule="evenodd">
        <g id="Installed-apps-empty" transform="translate(-736.000000, -434.000000)" stroke="#A3ADB5">
            <g id="Group-3" transform="translate(737.000000, 435.000000)">
                <g id="Group-2" transform="translate(0.000000, 21.000000)" stroke-linecap="round" stroke-linejoin="round">
                    <g id="Orion_storage-box">
                        <polygon id="Path" points="24 18.0710357 11.9996 22 0 18.0710357 0 3.92817857 11.9996 0 24 3.92817857"></polygon>
                        <path d="M24,3.92817857 L11.9996,7.85714286 L0,3.92817857 M11.9996,7.85714286 L11.9996,22" id="Shape"></path>
                    </g>
                    <g id="Orion_storage-box-Copy-2" transform="translate(27.000000, 0.000000)">
                        <polygon id="Path" points="24 18.0710357 11.9996 22 0 18.0710357 0 3.92817857 11.9996 0 24 3.92817857"></polygon>
                        <path d="M24,3.92817857 L11.9996,7.85714286 L0,3.92817857 M11.9996,7.85714286 L11.9996,22" id="Shape"></path>
                    </g>
                </g>
                <g id="Orion_storage-box-Copy" transform="translate(14.000000, 0.000000)" stroke-linecap="round" stroke-linejoin="round">
                    <polygon id="Path" points="24 18.0710357 11.9996 22 0 18.0710357 0 3.92817857 11.9996 0 24 3.92817857"></polygon>
                    <path d="M24,3.92817857 L11.9996,7.85714286 L0,3.92817857 M11.9996,7.85714286 L11.9996,22" id="Shape"></path>
                </g>
                <path d="M41.5,16.5 L41.5,17.4420509" id="Line-5" stroke-linecap="square"></path>
                <path d="M10.5,16.5 L10.5,17.4420509" id="Line-5-Copy" stroke-linecap="square"></path>
                <path d="M25.5,42.5 L25.5,43.4420509" id="Line-5-Copy-2" stroke-linecap="square"></path>
            </g>
        </g>
    </g>
</svg>